# Blender v2.78 (sub 0) OBJ File: ''
# www.blender.org
mtllib field.mtl
o Plane.001
v 4.185282 -0.000000 4.783180
v 4.783180 -0.000000 4.783180
v 4.783180 -0.000000 4.185282
v 4.185282 -0.000000 4.185282
v 3.587385 -0.000000 4.783180
v 3.588022 0.007938 4.185971
v 2.989487 -0.000000 4.783180
v 2.989479 0.002643 4.185508
v 2.391590 -0.000000 4.783180
v 2.391370 0.024109 4.187786
v 1.793692 -0.000000 4.783180
v 1.793736 0.037063 4.189576
v 1.195810 0.006187 4.783286
v 1.197606 0.101272 4.198408
v 0.597907 0.006045 4.783355
v 0.597594 0.171372 4.212266
v 0.000000 0.081780 4.783186
v 0.000000 0.039779 4.190449
v -0.597907 0.006045 4.783355
v -0.597594 0.171372 4.212266
v -1.195810 0.006187 4.783286
v -1.197606 0.101272 4.198408
v -1.793692 -0.000000 4.783180
v -1.793736 0.037063 4.189576
v -2.391590 -0.000000 4.783180
v -2.391370 0.024109 4.187786
v -2.989487 -0.000000 4.783180
v -2.989479 0.002643 4.185508
v -3.587385 -0.000000 4.783180
v -3.588022 0.007938 4.185971
v -4.185282 -0.000000 4.783180
v -4.185282 -0.000000 4.185282
v -4.783180 -0.000000 4.783180
v -4.783180 -0.000000 4.185282
v 4.783180 -0.000000 3.587385
v 4.187738 0.026814 3.589068
v 3.621602 0.292057 3.615309
v 2.995390 0.257384 3.600780
v 2.393419 0.338611 3.629875
v 1.792319 0.175774 3.596333
v 1.199924 0.173652 3.617237
v 0.595222 0.401628 3.668090
v 0.000000 0.282926 3.676150
v -0.595222 0.401628 3.668090
v -1.199924 0.173652 3.617237
v -1.792319 0.175774 3.596333
v -2.393419 0.338611 3.629875
v -4.187738 0.026814 3.589068
v -4.783180 -0.000000 3.587385
v -2.995390 0.257384 3.600780
v -3.621602 0.292057 3.615309
v 4.783180 -0.000000 2.989487
v 4.224785 0.321143 3.000287
v 1.218489 0.648072 3.170692
v 0.608908 0.652692 3.176776
v 0.000000 0.392445 3.079117
v 1.791917 0.418601 3.052189
v 3.655273 0.508913 3.013731
v -0.608908 0.652692 3.176776
v -1.218489 0.648072 3.170692
v 2.431841 0.660707 3.090376
v 3.056959 0.573705 3.045011
v -1.791917 0.418601 3.052189
v -4.224785 0.321143 3.000287
v -4.783180 -0.000000 2.989487
v -2.431841 0.660707 3.090376
v -3.056959 0.573705 3.045011
v -3.655273 0.508913 3.013731
v 4.783180 -0.000000 2.391590
v 4.219630 0.301623 2.394287
v 1.210253 0.634492 2.507846
v 0.622357 0.971975 2.561995
v 1.818211 0.710171 2.509271
v 3.638741 0.370555 2.394327
v 2.506315 0.868912 2.549587
v -0.622357 0.971975 2.561995
v -1.210253 0.634492 2.507846
v 3.088557 0.573450 2.452955
v 0.000000 1.177154 2.563038
v -1.818211 0.710171 2.509271
v -4.219630 0.301623 2.394287
v -4.783180 -0.000000 2.391590
v -2.506315 0.868912 2.549587
v -3.088557 0.573450 2.452955
v -3.638741 0.370555 2.394327
v 4.783180 -0.000000 1.793692
v 4.222687 0.298012 1.798284
v 3.667949 0.354067 1.799896
v 3.117743 0.529367 1.825572
v 2.695510 1.247703 2.009199
v 1.885863 1.332813 2.056562
v -4.222687 0.298012 1.798284
v -4.783180 -0.000000 1.793692
v 1.170026 1.182362 1.865548
v -1.885863 1.332813 2.056562
v -2.695510 1.247703 2.009199
v -3.667949 0.354067 1.799896
v -3.117743 0.529367 1.825572
v -1.170026 1.182362 1.865548
v 0.511287 1.264251 1.808568
v -0.511287 1.264251 1.808568
v 0.000000 1.197613 1.741465
v 4.783180 -0.000000 1.195795
v 4.209812 0.297577 1.200816
v 3.657934 0.319788 1.203437
v 3.092730 0.683093 1.209512
v -4.209812 0.297577 1.200816
v -4.783180 -0.000000 1.195795
v -3.657934 0.319788 1.203437
v 2.775991 1.342362 1.259181
v -3.092730 0.683093 1.209512
v 1.926768 1.384222 1.150789
v -2.775991 1.342362 1.259181
v -1.926768 1.384222 1.150789
v 1.199212 1.487179 1.155122
v 0.448049 1.052588 1.204727
v 0.000000 0.959802 1.177698
v -0.448049 1.052588 1.204727
v -1.199212 1.487179 1.155122
v 4.783180 0.000206 0.597897
v 4.230567 0.329252 0.599620
v 3.621790 0.236247 0.591559
v 3.141922 0.702570 0.560897
v -4.230567 0.329252 0.599620
v -4.783180 0.000206 0.597897
v -3.621790 0.236247 0.591559
v -3.141922 0.702570 0.560897
v 0.462447 1.190227 0.670977
v 0.000000 0.779104 0.630759
v -0.462447 1.190227 0.670977
v 2.596958 1.280415 0.474664
v -2.596958 1.280415 0.474664
v 1.214706 1.449897 0.534285
v -1.214706 1.449897 0.534285
v 1.897937 1.227103 0.454386
v -1.897937 1.227103 0.454386
v 4.783180 0.012479 0.000000
v 4.234345 0.314071 -0.009145
v 3.597239 0.160527 -0.005666
v 3.193344 0.705391 -0.088039
v -4.234345 0.314071 -0.009145
v -4.783180 0.012479 0.000000
v -3.597239 0.160527 -0.005666
v 0.565569 1.497075 0.148855
v 0.000000 0.702028 0.141598
v -0.565569 1.497075 0.148855
v -3.193344 0.705391 -0.088039
v 2.496691 0.924063 -0.071952
v 1.294419 0.947582 -0.016734
v -1.294419 0.947582 -0.016734
v 1.856135 0.944548 -0.059469
v -2.496691 0.924063 -0.071952
v -1.856135 0.944548 -0.059469
v 4.783180 0.016814 -0.597897
v 4.198207 0.277237 -0.600742
v 3.589666 0.062104 -0.598491
v 3.129585 0.403316 -0.627977
v -4.198207 0.277237 -0.600742
v -4.783180 0.016814 -0.597897
v -3.589666 0.062104 -0.598491
v -3.129585 0.403316 -0.627977
v 2.512628 0.987515 -0.591124
v 0.700327 1.565459 -0.474561
v 0.000000 1.607086 -0.443002
v -0.700327 1.565459 -0.474561
v 1.840550 0.879527 -0.551993
v 1.329071 1.006151 -0.579891
v -1.329071 1.006151 -0.579891
v -1.840550 0.879527 -0.551993
v -2.512628 0.987515 -0.591124
v 4.783180 0.058460 -1.195795
v 4.198845 0.207224 -1.195452
v 3.597082 0.159374 -1.191742
v 3.102580 0.367153 -1.194239
v -4.198845 0.207224 -1.195452
v -4.783180 0.058460 -1.195795
v -3.597082 0.159374 -1.191742
v -3.102580 0.367153 -1.194239
v 2.549777 1.024363 -1.183567
v 1.888846 1.140031 -1.140834
v 1.325057 1.085434 -1.158348
v -2.549777 1.024363 -1.183567
v -1.325057 1.085434 -1.158348
v -1.888846 1.140031 -1.140834
v 0.700183 1.484589 -1.277106
v -0.700183 1.484589 -1.277106
v 0.000000 1.348208 -1.311334
v 4.783180 0.049431 -1.793692
v 4.202919 0.197091 -1.793771
v 3.620292 0.266261 -1.784464
v 3.149274 0.527961 -1.764232
v -4.202919 0.197091 -1.793771
v -4.783180 0.049431 -1.793692
v -3.620292 0.266261 -1.784464
v 2.484049 0.543398 -1.781215
v -3.149274 0.527961 -1.764232
v -2.484049 0.543398 -1.781215
v 1.902961 1.285122 -1.797832
v -1.902961 1.285122 -1.797832
v 1.215793 1.171078 -1.877134
v -1.215793 1.171078 -1.877134
v 0.607800 1.224103 -1.937138
v -0.607800 1.224103 -1.937138
v 0.000000 1.247357 -2.012785
v 4.783180 0.026240 -2.391590
v 4.206192 0.155496 -2.389602
v 3.602237 0.125636 -2.388700
v 3.266749 0.838412 -2.351640
v -4.206192 0.155496 -2.389602
v -4.783180 0.026240 -2.391590
v -3.602237 0.125636 -2.388700
v 2.623216 0.966365 -2.426084
v -3.266749 0.838412 -2.351640
v -2.623216 0.966365 -2.426084
v 1.858853 1.156192 -2.497335
v -1.858853 1.156192 -2.497335
v 1.180306 0.853397 -2.488584
v 0.594165 0.893701 -2.558761
v -1.180306 0.853397 -2.488584
v -0.594165 0.893701 -2.558761
v 0.000000 0.895766 -2.534137
v 4.783180 0.007783 -2.989487
v 4.204820 0.179755 -2.983722
v 3.587779 0.149486 -2.989593
v 3.068296 0.608355 -3.036524
v -4.204820 0.179755 -2.983722
v -4.783180 0.007783 -2.989487
v -3.587779 0.149486 -2.989593
v -3.068296 0.608355 -3.036524
v 2.475719 0.815505 -3.055739
v 1.794919 0.517306 -3.049152
v -2.475719 0.815505 -3.055739
v 1.221052 0.637791 -3.107049
v 0.611014 0.560685 -3.066047
v 0.000000 0.496662 -3.025342
v -0.611014 0.560685 -3.066047
v -1.221052 0.637791 -3.107049
v -1.794919 0.517306 -3.049152
v 4.783180 0.000000 -3.587385
v 4.195685 0.173206 -3.588527
v 3.599162 0.316202 -3.594331
v 3.000750 0.304992 -3.621086
v -4.195685 0.173206 -3.588527
v -4.783180 0.000000 -3.587385
v -3.599162 0.316202 -3.594331
v 2.395564 0.408784 -3.649014
v -3.000750 0.304992 -3.621086
v 1.800668 0.279263 -3.626639
v 1.248534 0.723634 -3.725426
v 0.625608 0.687331 -3.657667
v 0.000000 0.640706 -3.635792
v -1.800668 0.279263 -3.626639
v -2.395564 0.408784 -3.649014
v -0.625608 0.687331 -3.657667
v -1.248534 0.723634 -3.725426
v 4.783180 0.000000 -4.185282
v 4.185282 0.035364 -4.185282
v 3.592630 0.113907 -4.195251
v 2.992362 0.251343 -4.198511
v 2.389038 0.069032 -4.187564
v 1.805679 0.166522 -4.219528
v -4.185282 0.035364 -4.185282
v -4.783180 0.000000 -4.185282
v -3.592630 0.113907 -4.195251
v -1.805679 0.166522 -4.219528
v -2.389038 0.069032 -4.187564
v -2.992362 0.251343 -4.198511
v 1.222345 0.334617 -4.256468
v 0.603497 0.335852 -4.248806
v 0.000000 0.290942 -4.225135
v -0.603497 0.335852 -4.248806
v -1.222345 0.334617 -4.256468
v 4.783180 0.000000 -4.783180
v 4.185282 0.000000 -4.783180
v 3.587953 0.028217 -4.785350
v 2.991291 0.145923 -4.793860
v 2.389296 0.193825 -4.790282
v 1.800779 0.180787 -4.800628
v -4.185282 0.000000 -4.783180
v -4.783180 0.000000 -4.783180
v -3.587953 0.028217 -4.785350
v 1.210202 0.160974 -4.822486
v -1.800779 0.180787 -4.800628
v -2.389296 0.193825 -4.790282
v -2.991291 0.145923 -4.793860
v -1.210202 0.160974 -4.822486
v 0.606503 0.264791 -4.844600
v 0.000000 0.338044 -4.851476
v -0.606503 0.264791 -4.844600
vn 0.0033 1.0000 0.0033
vn 0.0000 1.0000 0.0000
vn 0.0011 1.0000 0.0077
vn -0.0044 1.0000 0.0089
vn 0.0180 0.9996 0.0224
vn 0.0109 0.9986 0.0514
vn 0.0593 0.9920 0.1113
vn 0.0594 0.9738 0.2195
vn -0.0483 0.9933 0.1053
vn 0.0483 0.9933 0.1053
vn -0.0594 0.9738 0.2195
vn -0.0593 0.9920 0.1113
vn -0.0109 0.9986 0.0514
vn -0.0180 0.9996 0.0224
vn -0.0011 1.0000 0.0077
vn 0.0044 1.0000 0.0089
vn -0.0033 1.0000 0.0033
vn 0.0225 0.9995 0.0225
vn 0.2265 0.9394 0.2573
vn -0.0347 0.9062 0.4214
vn 0.0879 0.8914 0.4447
vn -0.1251 0.9232 0.3634
vn 0.0558 0.9827 0.1767
vn -0.1926 0.8956 0.4010
vn 0.2452 0.9362 0.2518
vn 0.1926 0.8956 0.4010
vn -0.2452 0.9362 0.2518
vn -0.0558 0.9827 0.1767
vn 0.1251 0.9232 0.3634
vn -0.0225 0.9995 0.0225
vn -0.0879 0.8914 0.4447
vn -0.2265 0.9394 0.2573
vn 0.0347 0.9062 0.4214
vn 0.2827 0.9289 0.2392
vn 0.1770 0.7755 0.6060
vn -0.3067 0.9046 0.2959
vn 0.2223 0.7878 0.5744
vn 0.3533 0.8518 0.3868
vn 0.3067 0.9046 0.2959
vn -0.1770 0.7755 0.6060
vn -0.3022 0.8496 0.4323
vn 0.1472 0.8486 0.5081
vn 0.0281 0.9070 0.4202
vn -0.2223 0.7878 0.5744
vn -0.2827 0.9289 0.2392
vn 0.3022 0.8496 0.4323
vn -0.1472 0.8486 0.5081
vn -0.3533 0.8518 0.3868
vn -0.0281 0.9070 0.4202
vn 0.4851 0.8743 -0.0163
vn 0.2781 0.9339 0.2246
vn 0.1476 0.9633 0.2243
vn 0.2145 0.9682 -0.1285
vn -0.2879 0.8795 0.3789
vn -0.2781 0.9339 0.2246
vn 0.3172 0.9271 0.1999
vn 0.2176 0.9700 -0.1083
vn -0.0865 0.7134 0.6954
vn -0.1476 0.9633 0.2243
vn 0.0865 0.7134 0.6954
vn -0.4851 0.8743 -0.0163
vn 0.2879 0.8795 0.3789
vn -0.3172 0.9271 0.1999
vn -0.2145 0.9682 -0.1285
vn -0.2176 0.9700 -0.1083
vn 0.4707 0.8823 -0.0015
vn 0.4678 0.8838 -0.0034
vn 0.1094 0.9939 -0.0138
vn 0.3227 0.9460 -0.0315
vn 0.7165 0.6235 0.3127
vn -0.0315 0.7079 0.7057
vn -0.4707 0.8823 -0.0015
vn -0.4678 0.8838 -0.0034
vn -0.2176 0.6695 0.7102
vn 0.0315 0.7079 0.7057
vn -0.1094 0.9939 -0.0138
vn -0.7165 0.6235 0.3127
vn 0.2176 0.6695 0.7102
vn -0.3227 0.9460 -0.0315
vn 0.2800 0.8356 0.4726
vn -0.2800 0.8356 0.4726
vn 0.1085 0.9765 0.1862
vn -0.1085 0.9765 0.1862
vn 0.4650 0.8853 -0.0053
vn 0.0704 0.9971 -0.0303
vn 0.4353 0.8971 0.0758
vn -0.4650 0.8853 -0.0053
vn -0.0704 0.9971 -0.0303
vn 0.8832 0.4537 0.1184
vn -0.4353 0.8971 0.0758
vn 0.0726 0.9930 0.0929
vn -0.8832 0.4537 0.1184
vn -0.0726 0.9930 0.0929
vn -0.0596 0.9754 0.2124
vn -0.1199 0.9287 -0.3510
vn -0.2424 0.9673 0.0748
vn 0.1199 0.9287 -0.3510
vn 0.0596 0.9754 0.2124
vn 0.2424 0.9673 0.0748
vn 0.4862 0.8733 0.0316
vn -0.0606 0.9973 -0.0419
vn 0.6219 0.7824 -0.0333
vn -0.4862 0.8733 0.0316
vn 0.0606 0.9973 -0.0419
vn -0.6219 0.7824 -0.0333
vn -0.4815 0.8755 -0.0413
vn 0.4815 0.8755 -0.0413
vn 0.8184 0.5674 -0.0910
vn -0.8184 0.5674 -0.0910
vn -0.4113 0.9089 0.0684
vn 0.4113 0.9089 0.0684
vn 0.0049 0.9891 -0.1470
vn 0.2144 0.9660 -0.1447
vn -0.0049 0.9891 -0.1470
vn -0.2144 0.9660 -0.1447
vn 0.4969 0.8678 -0.0005
vn -0.1934 0.9786 -0.0704
vn 0.7540 0.6565 -0.0221
vn -0.4969 0.8678 -0.0005
vn 0.1934 0.9786 -0.0704
vn -0.7606 0.6455 0.0691
vn 0.7606 0.6455 0.0691
vn -0.7540 0.6565 -0.0221
vn 0.5317 0.8060 -0.2601
vn 0.1602 0.9756 -0.1504
vn -0.1602 0.9756 -0.1504
vn 0.0877 0.8034 -0.5890
vn -0.0180 0.8575 -0.5142
vn -0.5317 0.8060 -0.2601
vn -0.0877 0.8034 -0.5890
vn 0.0180 0.8575 -0.5142
vn 0.4441 0.8952 -0.0380
vn -0.2828 0.9541 -0.0985
vn 0.7054 0.6531 -0.2753
vn -0.4441 0.8952 -0.0380
vn 0.2828 0.9541 -0.0985
vn -0.7054 0.6531 -0.2753
vn 0.5035 0.8377 -0.2115
vn -0.4230 0.7280 0.5395
vn 0.4230 0.7280 0.5395
vn 0.1199 0.9928 -0.0039
vn -0.0666 0.9978 -0.0016
vn 0.6435 0.7459 0.1717
vn -0.1199 0.9928 -0.0039
vn -0.6435 0.7459 0.1717
vn -0.5035 0.8377 -0.2115
vn 0.0666 0.9978 -0.0016
vn 0.3303 0.9436 -0.0223
vn -0.2122 0.9770 0.0210
vn 0.4973 0.8668 0.0373
vn -0.3303 0.9436 -0.0223
vn 0.2122 0.9770 0.0210
vn -0.4973 0.8668 0.0373
vn 0.7279 0.6856 0.0068
vn 0.0207 0.9692 0.2455
vn 0.0523 0.9583 0.2809
vn -0.7279 0.6856 0.0068
vn -0.0523 0.9583 0.2809
vn -0.0207 0.9692 0.2455
vn 0.6074 0.7944 -0.0027
vn -0.6074 0.7944 -0.0027
vn -0.0658 0.9778 -0.1988
vn 0.0658 0.9778 -0.1988
vn 0.2466 0.9690 -0.0147
vn 0.0188 0.9965 0.0814
vn 0.4292 0.8742 0.2271
vn -0.2466 0.9690 -0.0147
vn -0.0188 0.9965 0.0814
vn 0.4702 0.8492 -0.2405
vn -0.4292 0.8742 0.2271
vn -0.4702 0.8492 -0.2405
vn 0.5485 0.8018 -0.2372
vn -0.5485 0.8018 -0.2372
vn -0.1447 0.9742 0.1734
vn 0.1447 0.9742 0.1734
vn 0.3609 0.9171 -0.1691
vn -0.3609 0.9171 -0.1691
vn -0.0623 0.9657 -0.2521
vn 0.0623 0.9657 -0.2521
vn 0.2323 0.9712 -0.0521
vn 0.0314 0.9881 -0.1504
vn 0.7657 0.6247 0.1529
vn -0.2323 0.9712 -0.0521
vn -0.0314 0.9881 -0.1504
vn 0.0571 0.8526 0.5194
vn -0.7657 0.6247 0.1529
vn -0.0571 0.8526 0.5194
vn 0.5463 0.8094 0.2156
vn -0.5463 0.8094 0.2156
vn -0.2647 0.9176 -0.2965
vn 0.1193 0.8769 -0.4656
vn 0.2647 0.9176 -0.2965
vn -0.1193 0.8769 -0.4656
vn 0.0398 0.8579 -0.5123
vn -0.0398 0.8579 -0.5123
vn 0.2523 0.9676 0.0044
vn -0.0493 0.9979 0.0408
vn 0.7884 0.5735 -0.2225
vn -0.2523 0.9676 0.0044
vn 0.0493 0.9979 0.0408
vn -0.7884 0.5735 -0.2225
vn 0.2701 0.9034 -0.3329
vn -0.0379 0.8339 -0.5506
vn -0.2701 0.9034 -0.3329
vn -0.0942 0.8049 -0.5859
vn -0.0733 0.8037 -0.5905
vn -0.0169 0.8985 -0.4387
vn 0.0733 0.8037 -0.5905
vn 0.0169 0.8985 -0.4387
vn 0.0942 0.8049 -0.5859
vn 0.0379 0.8339 -0.5506
vn 0.2838 0.9588 -0.0136
vn 0.0904 0.9873 0.1309
vn 0.3759 0.9184 -0.1233
vn -0.2838 0.9588 -0.0136
vn -0.0904 0.9873 0.1309
vn 0.2334 0.8195 -0.5233
vn -0.3759 0.9184 -0.1233
vn -0.2935 0.8451 -0.4468
vn 0.4572 0.8837 -0.0998
vn -0.0760 0.9729 0.2182
vn 0.2935 0.8451 -0.4468
vn 0.0760 0.9729 0.2182
vn -0.2334 0.8195 -0.5233
vn -0.4572 0.8837 -0.0998
vn -0.0754 0.9826 0.1699
vn 0.0754 0.9826 0.1699
vn 0.1723 0.9784 -0.1144
vn 0.1798 0.9456 -0.2711
vn 0.1076 0.9713 -0.2123
vn -0.0565 0.9418 -0.3313
vn -0.0222 0.9283 -0.3712
vn -0.1723 0.9784 -0.1144
vn -0.1798 0.9456 -0.2711
vn 0.0222 0.9283 -0.3712
vn -0.1076 0.9713 -0.2123
vn 0.0565 0.9418 -0.3313
vn 0.4753 0.8000 -0.3661
vn -0.0827 0.8575 -0.5078
vn 0.0827 0.8575 -0.5078
vn -0.4753 0.8000 -0.3661
vn -0.0569 0.8344 -0.5482
vn 0.0569 0.8344 -0.5482
vn 0.0295 0.9991 -0.0295
vn 0.0899 0.9908 -0.1013
vn 0.2074 0.9656 -0.1567
vn -0.1106 0.9937 0.0161
vn 0.0672 0.9910 0.1161
vn -0.0295 0.9991 -0.0295
vn -0.0899 0.9908 -0.1013
vn 0.1309 0.9817 -0.1383
vn -0.0672 0.9910 0.1161
vn 0.1106 0.9937 0.0161
vn -0.2074 0.9656 -0.1567
vn -0.1309 0.9817 -0.1383
vn 0.0862 0.9748 -0.2060
vn 0.0231 0.9995 -0.0195
vn -0.0231 0.9995 -0.0195
vn -0.0862 0.9748 -0.2060
usemtl tex_02
s 1
f 1//1 2//2 3//2 4//1
f 5//3 1//1 4//1 6//3
f 7//4 5//3 6//3 8//4
f 9//5 7//5 8//5 10//5
f 11//6 9//6 10//6 12//6
f 13//7 11//7 12//7 14//7
f 15//8 13//8 14//8 16//8
f 17//9 15//9 16//9 18//9
f 19//10 17//10 18//10 20//10
f 21//11 19//11 20//11 22//11
f 23//12 21//12 22//12 24//12
f 25//13 23//13 24//13 26//13
f 27//14 25//14 26//14 28//14
f 29//15 27//16 28//16 30//15
f 31//17 29//15 30//15 32//17
f 33//2 31//17 32//17 34//2
f 4//18 3//18 35//18 36//18
f 6//19 4//19 36//19 37//19
f 8//20 6//20 37//20 38//20
f 10//21 8//21 38//21 39//21
f 12//22 10//22 39//22 40//22
f 14//23 12//23 40//23 41//23
f 18//24 16//24 42//24 43//24
f 16//25 14//25 41//25 42//25
f 20//26 18//26 43//26 44//26
f 22//27 20//27 44//27 45//27
f 24//28 22//28 45//28 46//28
f 26//29 24//29 46//29 47//29
f 34//30 32//30 48//30 49//30
f 28//31 26//31 47//31 50//31
f 32//32 30//32 51//32 48//32
f 30//33 28//33 50//33 51//33
f 36//34 35//34 52//34 53//34
f 42//35 41//35 54//35 55//35
f 43//36 42//36 55//36 56//36
f 41//37 40//37 57//37 54//37
f 37//38 36//38 53//38 58//38
f 44//39 43//39 56//39 59//39
f 45//40 44//40 59//40 60//40
f 40//41 39//41 61//41 57//41
f 39//42 38//42 62//42 61//42
f 38//43 37//43 58//43 62//43
f 46//44 45//44 60//44 63//44
f 49//45 48//45 64//45 65//45
f 47//46 46//46 63//46 66//46
f 50//47 47//47 66//47 67//47
f 48//48 51//48 68//48 64//48
f 51//49 50//49 67//49 68//49
f 53//50 52//50 69//50 70//50
f 55//51 54//51 71//51 72//51
f 54//52 57//52 73//52 71//52
f 58//53 53//53 70//53 74//53
f 57//54 61//54 75//54 73//54
f 60//55 59//55 76//55 77//55
f 61//56 62//56 78//56 75//56
f 62//57 58//57 74//57 78//57
f 56//58 55//58 72//58 79//58
f 63//59 60//59 77//59 80//59
f 59//60 56//60 79//60 76//60
f 65//61 64//61 81//61 82//61
f 66//62 63//62 80//62 83//62
f 67//63 66//63 83//63 84//63
f 64//64 68//64 85//64 81//64
f 68//65 67//65 84//65 85//65
f 70//66 69//66 86//67 87//67
f 74//68 70//68 87//68 88//68
f 78//69 74//69 88//69 89//69
f 75//70 78//70 89//70 90//70
f 73//71 75//71 90//71 91//71
f 82//72 81//72 92//73 93//73
f 71//74 73//74 91//74 94//74
f 83//75 80//75 95//75 96//75
f 81//76 85//76 97//76 92//76
f 84//77 83//77 96//77 98//77
f 80//78 77//78 99//78 95//78
f 85//79 84//79 98//79 97//79
f 72//80 71//80 94//80 100//80
f 77//81 76//81 101//81 99//81
f 79//82 72//82 100//82 102//82
f 76//83 79//83 102//83 101//83
f 87//67 86//67 103//84 104//84
f 88//85 87//85 104//85 105//85
f 89//86 88//86 105//86 106//86
f 93//73 92//73 107//87 108//87
f 92//88 97//88 109//88 107//88
f 90//89 89//89 106//89 110//89
f 97//90 98//90 111//90 109//90
f 91//91 90//91 110//91 112//91
f 98//92 96//92 113//92 111//92
f 96//93 95//93 114//93 113//93
f 94//94 91//94 112//94 115//94
f 102//95 100//95 116//95 117//95
f 100//96 94//96 115//96 116//96
f 101//97 102//97 117//97 118//97
f 95//98 99//98 119//98 114//98
f 99//99 101//99 118//99 119//99
f 104//100 103//100 120//100 121//100
f 105//101 104//101 121//101 122//101
f 106//102 105//102 122//102 123//102
f 108//103 107//103 124//103 125//103
f 107//104 109//104 126//104 124//104
f 109//105 111//105 127//105 126//105
f 117//106 116//106 128//106 129//106
f 118//107 117//107 129//107 130//107
f 110//108 106//108 123//108 131//108
f 111//109 113//109 132//109 127//109
f 116//110 115//110 133//110 128//110
f 119//111 118//111 130//111 134//111
f 112//112 110//112 131//112 135//112
f 115//113 112//113 135//113 133//113
f 113//114 114//114 136//114 132//114
f 114//115 119//115 134//115 136//115
f 121//116 120//116 137//116 138//116
f 122//117 121//117 138//117 139//117
f 123//118 122//118 139//118 140//118
f 125//119 124//119 141//119 142//119
f 124//120 126//120 143//120 141//120
f 129//121 128//121 144//121 145//121
f 130//122 129//122 145//122 146//122
f 126//123 127//123 147//123 143//123
f 131//124 123//124 140//124 148//124
f 128//125 133//125 149//125 144//125
f 134//126 130//126 146//126 150//126
f 133//127 135//127 151//127 149//127
f 135//128 131//128 148//128 151//128
f 127//129 132//129 152//129 147//129
f 136//130 134//130 150//130 153//130
f 132//131 136//131 153//131 152//131
f 138//132 137//132 154//132 155//132
f 139//133 138//133 155//133 156//133
f 140//134 139//134 156//134 157//134
f 142//135 141//135 158//135 159//135
f 141//136 143//136 160//136 158//136
f 143//137 147//137 161//137 160//137
f 148//138 140//138 157//138 162//138
f 145//139 144//139 163//139 164//139
f 146//140 145//140 164//140 165//140
f 149//141 151//141 166//141 167//141
f 151//142 148//142 162//142 166//142
f 144//143 149//143 167//143 163//143
f 153//144 150//144 168//144 169//144
f 150//145 146//145 165//145 168//145
f 147//146 152//146 170//146 161//146
f 152//147 153//147 169//147 170//147
f 155//148 154//148 171//148 172//148
f 156//149 155//149 172//149 173//149
f 157//150 156//150 173//150 174//150
f 159//151 158//151 175//151 176//151
f 158//152 160//152 177//152 175//152
f 160//153 161//153 178//153 177//153
f 162//154 157//154 174//154 179//154
f 166//155 162//155 179//155 180//155
f 167//156 166//156 180//156 181//156
f 161//157 170//157 182//157 178//157
f 169//158 168//158 183//158 184//158
f 170//159 169//159 184//159 182//159
f 163//160 167//160 181//160 185//160
f 168//161 165//161 186//161 183//161
f 164//162 163//162 185//162 187//162
f 165//163 164//163 187//163 186//163
f 172//164 171//164 188//164 189//164
f 173//165 172//165 189//165 190//165
f 174//166 173//166 190//166 191//166
f 176//167 175//167 192//167 193//167
f 175//168 177//168 194//168 192//168
f 179//169 174//169 191//169 195//169
f 177//170 178//170 196//170 194//170
f 178//171 182//171 197//171 196//171
f 180//172 179//172 195//172 198//172
f 182//173 184//173 199//173 197//173
f 181//174 180//174 198//174 200//174
f 184//175 183//175 201//175 199//175
f 185//176 181//176 200//176 202//176
f 183//177 186//177 203//177 201//177
f 187//178 185//178 202//178 204//178
f 186//179 187//179 204//179 203//179
f 189//180 188//180 205//180 206//180
f 190//181 189//181 206//181 207//181
f 191//182 190//182 207//182 208//182
f 193//183 192//183 209//183 210//183
f 192//184 194//184 211//184 209//184
f 195//185 191//185 208//185 212//185
f 194//186 196//186 213//186 211//186
f 196//187 197//187 214//187 213//187
f 198//188 195//188 212//188 215//188
f 197//189 199//189 216//189 214//189
f 200//190 198//190 215//190 217//190
f 202//191 200//191 217//191 218//191
f 199//192 201//192 219//192 216//192
f 201//193 203//193 220//193 219//193
f 204//194 202//194 218//194 221//194
f 203//195 204//195 221//195 220//195
f 206//196 205//196 222//196 223//196
f 207//197 206//197 223//197 224//197
f 208//198 207//198 224//198 225//198
f 210//199 209//199 226//199 227//199
f 209//200 211//200 228//200 226//200
f 211//201 213//201 229//201 228//201
f 212//202 208//202 225//202 230//202
f 215//203 212//203 230//203 231//203
f 213//204 214//204 232//204 229//204
f 217//205 215//205 231//205 233//205
f 221//206 218//206 234//206 235//206
f 218//207 217//207 233//207 234//207
f 220//208 221//208 235//208 236//208
f 219//209 220//209 236//209 237//209
f 216//210 219//210 237//210 238//210
f 214//211 216//211 238//211 232//211
f 223//212 222//212 239//212 240//212
f 224//213 223//213 240//213 241//213
f 225//214 224//214 241//214 242//214
f 227//215 226//215 243//215 244//215
f 226//216 228//216 245//216 243//216
f 230//217 225//217 242//217 246//217
f 228//218 229//218 247//218 245//218
f 231//219 230//219 246//219 248//219
f 233//220 231//220 248//220 249//220
f 235//221 234//221 250//221 251//221
f 232//222 238//222 252//222 253//222
f 236//223 235//223 251//223 254//223
f 229//224 232//224 253//224 247//224
f 238//225 237//225 255//225 252//225
f 234//226 233//226 249//226 250//226
f 237//227 236//227 254//227 255//227
f 240//228 239//228 256//228 257//228
f 241//229 240//229 257//229 258//229
f 242//230 241//230 258//230 259//230
f 246//231 242//231 259//231 260//231
f 248//232 246//232 260//232 261//232
f 244//233 243//233 262//233 263//233
f 243//234 245//234 264//234 262//234
f 253//235 252//235 265//235 266//235
f 245//236 247//236 267//236 264//236
f 247//237 253//237 266//237 267//237
f 249//238 248//238 261//238 268//238
f 251//239 250//239 269//239 270//239
f 254//240 251//240 270//240 271//240
f 252//241 255//241 272//241 265//241
f 250//242 249//242 268//242 269//242
f 255//243 254//243 271//243 272//243
f 257//244 256//244 273//244 274//244
f 258//245 257//245 274//245 275//245
f 259//246 258//246 275//246 276//246
f 260//247 259//247 276//247 277//247
f 261//248 260//248 277//248 278//248
f 263//249 262//249 279//249 280//249
f 262//250 264//250 281//250 279//250
f 268//251 261//251 278//251 282//251
f 266//252 265//252 283//252 284//252
f 267//253 266//253 284//253 285//253
f 264//254 267//254 285//254 281//254
f 265//255 272//255 286//255 283//255
f 269//256 268//256 282//256 287//256
f 270//257 269//257 287//257 288//257
f 271//258 270//258 288//258 289//258
f 272//259 271//259 289//259 286//259
